<svg id="art"viewBox="0 0 1265 750" fill="none" xmlns="http://www.w3.org/2000/svg">
  <g stroke="currentcolor" stroke-width="9">
    <path d="M149 5h927v741H149z"/>
    <rect x="338.5" y="28.5" width="595.8" height="34" rx="17"/>
    <path d="M144 84h936M252 36l12 14-12 12m-61-26-12 14 12 12"/>
  </g>
  <path d="m214 158-10-23h8l5 16 5-16h7l-12 33h-8l5-10Zm30 0a36 36 0 0 1-7 0l-2-2-2-2-1-4v-7l1-4 2-3 2-1 4-1a64 64 0 0 1 6 0l3 1 3 1 2 3 1 4v7l-1 4-2 2-2 2h-7Zm0-4h3l1-1 1-2v-9l-1-3h-8l-1 3v11l2 1h3Zm25 4-6-1-2-5v-17h7v18l1 1h6l1-1 1-2v-16h7v23h-7v-3c-1 2-3 3-8 3Zm21-23h6v4l1-2a7 7 0 0 1 5-3h3v6h-3l-4 1-1 3v14h-7v-23Zm38 23h-9v-5l10 1h3l1-2v-1l-1-2-2-1h-3l-6-1-2-4v-3c0-2 1-4 3-4l8-2 9 1v4a233 233 0 0 0-12 0l-1 2v2h5c6 0 9 2 9 6v3l-1 3-1 2-3 1h-7Zm17-32h7v6h-7v-6Zm0 9h7v23h-7v-23Zm25 23h-5l-2-1-2-3v-15h-5v-4h5v-7h7v7h6v4h-6v14l1 1h5v4h-4Zm20 0c-8 0-13-2-13-7v-8c0-3 1-5 3-7l9-2 8 2c2 1 3 4 3 7v5h-15v2l1 3 5 1 8-1v5h-9Zm3-14v-3l-1-2h-7v5h8Z" fill="currentcolor"/>
  <path d="M2 253h3v2c0-1 1-2 3-2l3 1 1 1 1-1 3-1 2 1 1 1v10h-3v-9l-1-1h-2l-1 1v9H9v-9l-1-1H6l-1 1v9H2v-12Zm24 12-5-12h4l3 9 2-9h4l-7 17h-3l2-5Zm18 0h-2l-1-1-1-2 1-3 1-1h6v-2l-1-1h-2l-4 1v-3a36 36 0 0 1 8 0l2 2v10h-3v-1l-1 1h-3Zm2-2h2v-3h-4v3h2Zm14 2a17 17 0 0 1-4 0l-1-1-1-3v-4l1-2 1-1h1l1-1h2l4 1v2l-4-1c-2 0-2 1-2 2v4l2 2h4v2h-4Zm12 0a17 17 0 0 1-4 0l-1-1-1-3v-6l1-1h1l1-1h3l3 1v2l-3-1c-2 0-3 1-3 2v4c0 1 1 2 3 2h4v2h-4Zm11 0a18 18 0 0 1-3 0l-1-1-1-1-1-2v-3l1-2 1-2h1l2-1a32 32 0 0 1 3 0l1 1h2l1 2v7l-1 1-1 1h-4Zm0-2h2v-1l1-1v-4l-1-1-2-1-2 1v6l1 1h1Zm13 2-3-1-1-2v-9h3v9l1 1h3v-1l1-1v-8h3v12h-3v-1l-4 1Zm10-12h4v2c0-1 1-2 3-2l3 1 1 2v9h-3v-9l-1-1h-3v10h-4v-12Zm20 12h-3l-1-1v-1l-1-1v-6h-2v-3h2v-3h4v3h3v3h-3v6l1 1h2v2h-2ZM7 293a17 17 0 0 1-4 0l-1-1-1-3v-4l1-2 1-1h1l1-1h2l4 1v2l-4-1-2 2v4l2 2h4v2H7Zm12 0a18 18 0 0 1-4 0l-1-1-1-1v-7l1-2h1l2-1a32 32 0 0 1 3 0l2 1h1l1 2 1 2v3l-1 2-1 1-1 1h-3Zm0-2h1l1-1v-6l-2-1-2 1-1 1v5l1 1h2Zm8-10h4v2c0-1 1-2 3-2l3 1 1 1 1-1 2-1 3 1 1 1v10h-3v-9l-1-1h-2l-1 1v9h-3v-8l-1-1v-1h-3v10h-4v-12Zm21 0h4v2l1-2h5l1 1 1 1v9l-2 1h-5l-1-1v6h-4v-17Zm6 10h2l1-1v-6l-1-1a8 8 0 0 0-3 0l-1 1v6l1 1h1Zm15 2a18 18 0 0 1-4 0l-1-1-1-1v-7l1-2h1l2-1a32 32 0 0 1 3 0l2 1h1l1 2v7l-1 1-1 1h-3Zm0-2h1l1-1v-5l-1-1-1-1-2 1-1 1v5l1 1h2Zm8-10h4v2c0-1 1-2 3-2l3 1 1 2v9h-3v-9l-1-1h-3v10h-4v-12Zm20 12c-4 0-6-1-6-4v-4l1-3 5-1 4 1 1 3v3h-7v3h7v2h-5Zm2-7v-2h-1l-1-1-2 1v2h4Zm6-5h3v2l4-2 3 1 1 2v9h-3v-8l-1-1v-1h-3v1l-1 1v8h-3v-12Zm20 12h-3l-1-1-1-1v-7h-2v-3h2v-3h4v3h3v3h-3v7h3v2h-2Z" fill="#C661AF"/>
  <path d="M1120 368h-3l-1-1-1-3v-4l1-3 4-1h2l1 1 1 1v-7h3v17h-3v-1l-1 1h-3Zm1-2h2l1-1v-5l-1-1v-1h-3l-1 1v7h2Zm9-14h4v3h-4v-3Zm0 4h4v12h-4v-12Zm11 12h-4v-2h6v-3h-6l-1-3v-1l2-2 4-1h4v3a116 116 0 0 0-6-1v2l1 1h2c3 0 4 1 4 2v3l-1 1-1 1h-4Zm14 0a17 17 0 0 1-4 0l-1-1-1-3v-4l1-2 1-1h1l1-1h2l4 1v2l-4-1-2 2v4l2 2h4v2h-4Zm10 0-3-1-1-2v-9h4v10h3l1-1v-9h3v12h-3v-1l-4 1Zm15 0h-5v-2h6l1-1v-2h-6l-1-3v-1l1-2 5-1h4v3a116 116 0 0 0-6-1l-1 1v1h1l1 1h1c3 0 4 1 4 2v3l-1 1-1 1h-3Zm12 0h-4v-2h6l1-1v-1l-1-1h-5l-1-3v-1l1-2 4-1h4v3a116 116 0 0 0-6-1v2l1 1h2c3 0 4 1 4 2v3l-1 1-1 1h-4Zm9-16h3v3h-3v-3Zm0 4h3v12h-3v-12Zm12 12a18 18 0 0 1-3 0l-2-1-1-1v-7l1-2h2l1-1a31 31 0 0 1 4 0l1 1h2v2l1 2v3l-1 2v1l-2 1h-3Zm0-2h1l1-1v-6l-2-1-2 1v7h2Zm9-10h3v2l4-2 3 1 1 2v9h-4v-10h-3l-1 1v9h-3v-12Zm-101 40a17 17 0 0 1-4 0l-1-1-1-3v-4l1-2 1-1h1l1-1h2l4 1v2l-4-1-2 2v4l2 2h4v2h-4Zm12 0a18 18 0 0 1-4 0l-1-1-1-1v-7l1-2h1l2-1a31 31 0 0 1 3 0l2 1h1l1 2 1 2v3l-1 2-1 1-1 1h-3Zm0-2h1l1-1v-6l-2-1-2 1-1 1v5l1 1h2Zm8-10h4v2c0-1 1-2 3-2l3 1 1 1 1-1 2-1 3 1 1 1v10h-3v-9l-1-1h-2l-1 1v9h-3v-8l-1-1v-1h-3v10h-4v-12Zm21 0h4v2l1-2h5l1 1 1 1v9l-2 1h-5l-1-1v6h-4v-17Zm6 10h2l1-1v-6l-1-1a8 8 0 0 0-3 0l-1 1v6l1 1h1Zm15 2a18 18 0 0 1-4 0l-1-1-1-1v-7l1-2h1l2-1a32 32 0 0 1 3 0l2 1h1l1 2v7l-1 1-1 1h-3Zm0-2h1l1-1v-5l-1-1-1-1-2 1-1 1v5l1 1h2Zm8-10h4v2c0-1 1-2 3-2l3 1 1 2v9h-3v-9l-1-1h-3v10h-4v-12Zm20 12c-4 0-6-1-6-4v-4l2-3 4-1 4 1 1 3v3h-7v3h7v2h-5Zm2-7v-2h-1l-1-1-2 1v2h4Zm6-5h3v2l4-2 3 1 1 2v9h-3v-8l-1-1v-1h-3v1l-1 1v8h-3v-12Zm20 12h-3l-1-1-1-1v-7h-2v-3h2v-3h4v3h3v3h-3v7h3v2h-2Z" fill="#63A258"/>
  <path d="M2 588h3v17H2v-17Zm6 1h4v3H8v-3Zm0 4h4v12H8v-12Zm6 0h3l3 8 2-8h4l-4 12h-4l-4-12Zm19 12c-4 0-6-1-6-4v-4l1-3 5-1 4 1 1 3v3h-7v3h7v2h-5Zm2-7v-2h-1l-1-1-2 1v2h4Zm10 7h-5v-2h7v-3h-6l-1-3v-1l2-2 4-1h4v3a117 117 0 0 0-6-1v2l1 1h1c3 0 5 1 5 2v2l-1 1v1l-2 1h-3Zm14 0h-3l-1-1v-1l-1-1v-6h-2v-3h2v-3h4v3h3v3h-3v6l1 1h2v2h-2Zm4-12h3v2l1-1a4 4 0 0 1 2-1h2v3h-1l-3 1v8h-4v-12Zm15 12c-4 0-6-1-6-4v-4l2-3 4-1 4 1 1 3v3h-7v1l1 2h6v2h-5Zm2-7v-2l-2-1-2 1v2h4Zm9 7h-2l-1-1-1-2 1-3 1-1h6v-2l-1-1h-2l-4 1v-3a36 36 0 0 1 8 0l2 2 1 2v8h-4v-1l-1 1h-3Zm2-2h2v-3h-4v3h2Zm9-10h3v2c0-1 1-2 4-2l2 1 1 1 1-1 3-1 2 1 1 1 1 1v9h-4v-10h-3l-1 1v9h-3v-9l-1-1h-2l-1 1v9h-3v-12ZM7 633a17 17 0 0 1-4 0l-1-1-1-3v-4l1-2 1-1h1l1-1h2l4 1v2l-4-1-2 2v4l2 2h4v2H7Zm12 0a18 18 0 0 1-4 0l-1-1-1-1v-7l1-2h1l2-1a32 32 0 0 1 3 0l2 1h1l1 2 1 2v3l-1 2-1 1-1 1h-3Zm0-2h1l1-1v-6l-2-1-2 1-1 1v5l1 1h2Zm8-10h4v2c0-1 1-2 3-2l3 1 1 1 1-1 2-1 3 1 1 1v10h-3v-9l-1-1h-2l-1 1v9h-3v-8l-1-1v-1h-3v10h-4v-12Zm21 0h4v2l1-2h5l1 1 1 1v9l-2 1h-5l-1-1v6h-4v-17Zm6 10h2l1-1v-6l-1-1a8 8 0 0 0-3 0l-1 1v6l1 1h1Zm15 2a18 18 0 0 1-4 0l-1-1-1-1v-7l1-2h1l2-1a32 32 0 0 1 3 0l2 1h1l1 2v7l-1 1-1 1h-3Zm0-2h1l1-1v-5l-1-1-1-1-2 1-1 1v5l1 1h2Zm8-10h4v2c0-1 1-2 3-2l3 1 1 2v9h-3v-9l-1-1h-3v10h-4v-12Zm20 12c-4 0-6-1-6-4v-4l1-3 5-1 4 1 1 3v3h-7v3h7v2h-5Zm2-7v-2h-1l-1-1-2 1v2h4Zm6-5h3v2l4-2 3 1 1 2v9h-3v-8l-1-1v-1h-3v1l-1 1v8h-3v-12Zm20 12h-3l-1-1-1-1v-7h-2v-3h2v-3h4v3h3v3h-3v7h3v2h-2Z" fill="#A970FF"/>
  <rect x="256.5" y="255.5" width="267" height="127" rx="12.5" stroke="#C661AF" stroke-width="9"/>
  <path fill="#C661AF" d="M377 316h51v10h-51zm0-29h51v10h-51zm0 14h85v10h-85zm0 29h85v10h-85zm86-56h51v8h-51zm0 9h35v8h-35z"/>
  <path d="M335 337c0-5-1-9-5-13a17 17 0 0 0-24 0c-3 4-5 8-5 13m26-31a9 9 0 1 1-18 0c0-6 4-9 9-9s9 3 9 9Z" stroke="#C661AF" stroke-width="9"/>
  <rect x="256.5" y="465.5" width="267" height="170" rx="12.5" stroke="#A970FF" stroke-width="9"/>
  <path fill="#7D27FF" fill-opacity=".6" d="M473 475h38v8h-38zm0 22h38v8h-38zm0 66h38v8h-38zm0-22h38v8h-38zm0 77h38v8h-38zm0-11h38v8h-38zm0-99h38v8h-38zm0 66h38v8h-38zm0-22h38v8h-38zm0-33h38v8h-38zm0 66h38v8h-38zm-200 22h194v8H273zm0 11h194v8H273zm200-88h38v8h-38zm0 66h38v8h-38z"/>
  <path fill-rule="evenodd" clip-rule="evenodd" d="M455 587h2v1h-1v1h-1v-2Zm4 0h2v2h-1v-1h-1v-1Zm-4 4h1v1h1v1h-2v-2Zm6 0v2h-2v-1h1v-1h1Z" fill="#A970FF"/>
  <path stroke="#A970FF" stroke-width="9" stroke-linejoin="round" d="M278 480h185v115H278z"/>
  <path d="M363 555v-31l27 15-27 16Z" stroke="#A970FF" stroke-width="9"/>
  <path fill="#63A258" d="M697 526h203v10H697zm0-197h203v11H697zm0 216h203v11H697zm0-196h203v11H697zm0 216h203v11H697zm0-196h203v11H697zm39 236h164v11H736zm0-20h164v11H736v-11Z"/>
  <path stroke="#63A258" stroke-width="9" d="M702 487h194v25H702z"/>
  <rect x="610.5" y="253.5" width="363" height="382" rx="12.5" stroke="#63A258" stroke-width="9"/>
  <path d="M678 526a17 17 0 0 0-17-17 18 18 0 0 0-18 17m27-30c0 5-4 9-9 9-6 0-9-4-9-9s3-8 9-8c5 0 9 3 9 8Zm55 120a14 14 0 0 0-14-14 14 14 0 0 0-14 14m20-25c0 3-2 6-6 6s-6-3-6-6 2-5 6-5 6 2 6 5Zm-15-300h194v25H702z" stroke="#63A258" stroke-width="9"/>
  <path fill="#63A258" d="M697 389h203v11H697zm0 20h203v11H697z"/>
  <path d="M678 329a17 17 0 0 0-17-17 18 18 0 0 0-18 17m27-30c0 5-4 9-9 9-6 0-9-4-9-9s3-8 9-8c5 0 9 3 9 8Z" stroke="#63A258" stroke-width="9"/>
  <path stroke="#63A258" stroke-width="9" stroke-dasharray="20 20" d="M645 454h303"/>
  <path d="M123 307c24 10 38 21 75 11l14-2 7-2 4-1 7-4 4-1 2 1v4l-10 21-3 9m-8-48 5 3 5 4 9 5-1 1" stroke="#C661AF" stroke-width="9"/>
  <path d="M105 581c29-22 96-56 130-26m0 0-2 2h-1l-9 4-10 4m22-10h1l1-3h-1l-4-13-3-12" stroke="#A970FF" stroke-width="9"/>
  <path d="M1126 412c-44 27-102 30-123 17m0 0-2-1v11l4 4 6 3m-8-17c-2-3-2-4-2-7 1-2 2-3 4-3h6l9 2" stroke="#63A258" stroke-width="9"/>
  <path stroke="currentcolor" stroke-width="9" d="M498 145h136m36 0h136m36 0h136"/>
</svg>